<svg xmlns="http://www.w3.org/2000/svg" fill-rule="evenodd" stroke-linejoin="round" stroke-miterlimit="2" clip-rule="evenodd" viewBox="0 0 48 48" id="music">
  <path fill="#ee534f" d="M16 28a2 2 0 0 0-2-2h-4a3.995 3.995 0 0 0-2.828 1.172A3.995 3.995 0 0 0 6 30v12c0 1.061.421 2.078 1.172 2.828A3.995 3.995 0 0 0 10 46h4a2 2 0 0 0 2-2V28ZM32 28a2 2 0 0 1 2-2h4c1.061 0 2.078.421 2.828 1.172A3.995 3.995 0 0 1 42 30v12a3.995 3.995 0 0 1-1.172 2.828A3.995 3.995 0 0 1 38 46h-4a2 2 0 0 1-2-2V28Z"></path>
  <path fill="#f5f5f5" d="M24 2A21.997 21.997 0 0 0 8.444 8.444 21.997 21.997 0 0 0 2 24v16a2 2 0 0 0 2 2h2V24A18 18 0 0 1 24 6a18 18 0 0 1 18 18v18h2a2 2 0 0 0 2-2V24a21.997 21.997 0 0 0-6.444-15.556A21.997 21.997 0 0 0 24 2Z"></path>
  <path fill="#f5f5f5" d="M16 28a2 2 0 0 0-2-2h-2v20h2a2 2 0 0 0 2-2V28ZM32 28a2 2 0 0 1 2-2h2v20h-2a2 2 0 0 1-2-2V28Z"></path>
  <path fill="#ee534f" d="M6.111 22h3.104a4 4 0 0 0 3.707-2.499A11.888 11.888 0 0 1 23.998 12H24c5.03 0 9.337 3.095 11.121 7.484a3.951 3.951 0 0 0 3.663 2.468c.908.009 1.97.016 3.102.021A18 18 0 0 0 24 6 18 18 0 0 0 6.111 22Z"></path>
  <path d="M5.101 43a5.01 5.01 0 0 0 1.363 2.536A5.004 5.004 0 0 0 10 47h4c.796 0 1.559-.316 2.121-.879A2.996 2.996 0 0 0 17 44V28c0-.796-.316-1.559-.879-2.121A2.996 2.996 0 0 0 14 25h-4c-1.088 0-2.14.355-3 1v-2A17 17 0 0 1 24 7a17 17 0 0 1 17 17v2c-.86-.645-1.912-1-3-1h-4c-.796 0-1.559.316-2.121.879A2.996 2.996 0 0 0 31 28v16c0 .796.316 1.559.879 2.121A2.996 2.996 0 0 0 34 47h4a5.004 5.004 0 0 0 3.536-1.464A5.01 5.01 0 0 0 42.899 43H44c1.656 0 3-1.344 3-3V24c0-6.1-2.423-11.95-6.737-16.263a22.996 22.996 0 0 0-32.526 0A22.996 22.996 0 0 0 1 24v16c0 1.656 1.344 3 3 3h1.101ZM15 28v16a.997.997 0 0 1-1 1h-4a2.996 2.996 0 0 1-2.121-.879A2.996 2.996 0 0 1 7 42V30c0-.796.316-1.559.879-2.121A2.996 2.996 0 0 1 10 27h4a.997.997 0 0 1 1 1Zm26 2v12c0 .796-.316 1.559-.879 2.121A2.996 2.996 0 0 1 38 45h-4a.997.997 0 0 1-1-1V28a.997.997 0 0 1 1-1h4c.796 0 1.559.316 2.121.879.563.562.879 1.325.879 2.121Zm2 11h1a1 1 0 0 0 1-1V24c0-5.57-2.212-10.911-6.151-14.849a20.995 20.995 0 0 0-29.698 0A20.995 20.995 0 0 0 3 24v16a1 1 0 0 0 1 1h1V24A19 19 0 0 1 24 5a19 19 0 0 1 19 19v17Z"></path>
  <path d="M26 29a3 3 0 0 0-3 3v8a1 1 0 0 1-2 0v-2a1 1 0 0 0-2 0v2a3 3 0 1 0 6 0v-8a1 1 0 0 1 2 0v2a1 1 0 0 0 2 0v-2a3 3 0 0 0-3-3zm-15 1v12a1 1 0 0 0 2 0V30a1 1 0 0 0-2 0zM35 30v12a1 1 0 0 0 2 0V30a1 1 0 0 0-2 0ZM10.397 22.858a5.003 5.003 0 0 0 3.452-2.982l.003-.008A10.887 10.887 0 0 1 23.998 13H24c4.611 0 8.559 2.837 10.195 6.86a4.95 4.95 0 0 0 3.396 2.946 1 1 0 0 0 .482-1.941 2.95 2.95 0 0 1-2.025-1.757v-.001C34.115 14.353 29.449 11 24 11h-.002a12.888 12.888 0 0 0-12.004 8.127 2.998 2.998 0 0 1-2.07 1.788 1 1 0 0 0 .473 1.943Z"></path>
</svg>
